<?xml version="1.0" encoding="UTF-8"?>
<svg id="Layer_1" xmlns="http://www.w3.org/2000/svg" xmlns:xlink="http://www.w3.org/1999/xlink" version="1.1" viewBox="0 0 100 100">
  <!-- Generator: Adobe Illustrator 29.5.0, SVG Export Plug-In . SVG Version: 2.1.0 Build 137)  -->
  <defs>
    <style>
      .az-s0 {
        fill: url(#az-lg2);
      }

      .az-s1 {
        fill: url(#az-lg1);
      }

      .az-s2 {
        fill: url(#az-lg0);
      }

      .az-s3 {
        fill: #0078d4;
      }

      .az-s4 {
        fill: #fff;
      }
    </style>
    <linearGradient id="az-lg0" x1="44.8" y1="87.3" x2="17.8" y2="7.4" gradientTransform="translate(0 102) scale(1 -1)" gradientUnits="userSpaceOnUse">
      <stop offset="0" stop-color="#114a8b"/>
      <stop offset="1" stop-color="#0669bc"/>
    </linearGradient>
    <linearGradient id="az-lg1" x1="53.3" y1="50.1" x2="47" y2="48" gradientTransform="translate(0 102) scale(1 -1)" gradientUnits="userSpaceOnUse">
      <stop offset="0" stop-color="#000" stop-opacity=".3"/>
      <stop offset="0" stop-color="#000" stop-opacity=".2"/>
      <stop offset=".3" stop-color="#000" stop-opacity=".1"/>
      <stop offset=".6" stop-color="#000" stop-opacity="0"/>
      <stop offset="1" stop-color="#000" stop-opacity="0"/>
    </linearGradient>
    <linearGradient id="az-lg2" x1="50" y1="89.7" x2="79.7" y2="10.6" gradientTransform="translate(0 102) scale(1 -1)" gradientUnits="userSpaceOnUse">
      <stop offset="0" stop-color="#3ccbf4"/>
      <stop offset="1" stop-color="#2892df"/>
    </linearGradient>
  </defs>
  <rect class="az-s4" x="424" y="-78" width="100" height="100"/>
  <g>
    <path class="az-s2" d="M35.3,8.5h26l-27,80.1c-.3.8-.8,1.5-1.5,2-.7.5-1.6.8-2.4.8H10.1c-.7,0-1.3-.2-1.9-.5-.6-.3-1.1-.7-1.5-1.3-.4-.5-.6-1.2-.7-1.8,0-.7,0-1.3.2-1.9L31.4,11.4c.3-.8.8-1.5,1.5-2,.7-.5,1.6-.8,2.4-.8Z"/>
    <path class="az-s3" d="M73.2,62.3H31.9c-.4,0-.8.1-1.1.3-.3.2-.6.5-.7.9-.1.4-.2.7,0,1.1,0,.4.3.7.6,1l26.5,24.8c.8.7,1.8,1.1,2.8,1.1h23.4l-10.2-29.2Z"/>
    <path class="az-s1" d="M35.3,8.5c-.9,0-1.7.3-2.4.8-.7.5-1.2,1.2-1.5,2.1L6.3,85.9c-.2.6-.3,1.3-.2,2,0,.7.3,1.3.7,1.8.4.5.9,1,1.5,1.3.6.3,1.2.5,1.9.5h20.8c.8-.1,1.5-.5,2.1-1,.6-.5,1.1-1.2,1.3-1.9l5-14.8,17.9,16.7c.8.6,1.7,1,2.7,1h23.3l-10.2-29.2h-29.8S61.5,8.5,61.5,8.5h-26.1Z"/>
    <path class="az-s0" d="M68.6,11.4c-.3-.8-.8-1.5-1.5-2-.7-.5-1.6-.8-2.4-.8h-29c.9,0,1.7.3,2.4.8.7.5,1.2,1.2,1.5,2l25.2,74.6c.2.6.3,1.3.2,1.9,0,.7-.3,1.3-.7,1.8-.4.5-.9,1-1.5,1.3-.6.3-1.2.5-1.9.5h29c.7,0,1.3-.2,1.9-.5.6-.3,1.1-.7,1.5-1.3.4-.5.6-1.2.7-1.8,0-.7,0-1.3-.2-1.9L68.6,11.4Z"/>
  </g>
</svg>