<?xml version="1.0" encoding="UTF-8"?>
<svg id="Layer_1" xmlns="http://www.w3.org/2000/svg" xmlns:xlink="http://www.w3.org/1999/xlink" version="1.1" viewBox="0 0 100 100">
  <!-- Generator: Adobe Illustrator 29.5.0, SVG Export Plug-In . SVG Version: 2.1.0 Build 137)  -->
  <defs>
    <style>
      .aws-s0 {
        fill: none;
      }

      .aws-s1 {
        fill: #f90;
        fill-rule: evenodd;
      }

      .aws-s2 {
        fill: #252f3e;
      }

      .aws-s3 {
        clip-path: url(#aws-clip);
      }
    </style>
    <clipPath id="aws-clip">
      <rect class="aws-s0" width="100" height="100"/>
    </clipPath>
  </defs>
  <g class="aws-s3">
    <g>
      <path class="aws-s2" d="M28.2,48c0,1.2.1,2.2.4,3,.3.7.6,1.5,1.1,2.4.1.2.2.5.2.8,0,.3-.2.7-.6,1l-2.1,1.4c-.3.2-.6.3-.9.3-.3,0-.7-.2-1-.5-.4-.5-.9-1-1.2-1.6-.4-.6-.7-1.3-1-2-2.6,3.1-5.9,4.6-9.8,4.6s-5-.8-6.7-2.4c-1.6-1.6-2.5-3.7-2.5-6.4s1-5.1,3-6.9c2-1.7,4.7-2.6,8.2-2.6s2.3,0,3.5.3c1.2.2,2.5.4,3.8.7v-2.4c0-2.5-.5-4.3-1.6-5.3-1.1-1-2.9-1.5-5.4-1.5s-2.4.1-3.6.4c-1.2.3-2.4.7-3.6,1.1-.4.2-.8.3-1.2.4-.2,0-.4,0-.5,0-.5,0-.7-.3-.7-1v-1.6c0-.5,0-.9.2-1.2.3-.3.6-.5.9-.7,1.2-.6,2.6-1.1,4.2-1.5,1.6-.4,3.4-.6,5.2-.6,4,0,6.9.9,8.7,2.7,1.8,1.8,2.8,4.5,2.8,8.2v10.8h0ZM14.7,53.1c1.1,0,2.2-.2,3.4-.6,1.2-.4,2.3-1.1,3.2-2.1.5-.6.9-1.3,1.1-2.1.2-.8.3-1.8.3-2.9v-1.4c-1-.2-2-.4-3.1-.6-1-.1-2.1-.2-3.1-.2-2.2,0-3.9.4-5,1.3-1.1.9-1.6,2.2-1.6,3.8s.4,2.7,1.2,3.5c.8.8,2,1.2,3.5,1.2ZM41.4,56.7c-.6,0-1-.1-1.3-.3-.3-.2-.5-.7-.7-1.3l-7.8-25.8c-.2-.4-.3-.9-.3-1.3,0-.5.3-.8.8-.8h3.3c.6,0,1.1.1,1.3.3.3.2.5.7.7,1.3l5.6,22.1,5.2-22.1c.2-.7.4-1.1.6-1.3.4-.2.9-.4,1.3-.3h2.7c.6,0,1.1.1,1.3.3.3.2.5.7.6,1.3l5.3,22.4,5.8-22.4c.1-.5.3-.9.7-1.3.4-.2.8-.4,1.3-.3h3.1c.5,0,.8.3.8.8s0,.3,0,.5c0,.3-.1.6-.2.8l-8,25.8c-.2.7-.4,1.1-.7,1.3-.4.2-.8.4-1.3.3h-2.9c-.6,0-1.1,0-1.3-.3-.3-.2-.5-.7-.6-1.3l-5.2-21.5-5.1,21.5c-.2.7-.4,1.1-.6,1.3-.3.2-.7.3-1.3.3h-2.9ZM84.1,57.6c-1.7,0-3.4-.2-5.1-.6-1.7-.4-3-.8-3.8-1.3-.5-.3-.9-.6-1-.9-.1-.3-.2-.6-.2-.9v-1.7c0-.7.3-1,.8-1,.2,0,.4,0,.6,0,.2,0,.5.2.8.3,1.1.5,2.4.9,3.7,1.2,1.3.3,2.6.4,4,.4,2.1,0,3.7-.4,4.9-1.1.5-.3,1-.8,1.3-1.4.3-.6.5-1.2.4-1.8,0-.4,0-.9-.2-1.3-.2-.4-.4-.8-.7-1.1-.6-.6-1.7-1.2-3.4-1.7l-4.8-1.5c-2.4-.8-4.2-1.9-5.3-3.4-1.1-1.4-1.7-3.1-1.7-4.8,0-1.4.3-2.6.9-3.7.6-1.1,1.4-2,2.4-2.7,1-.8,2.1-1.3,3.5-1.7,1.3-.4,2.7-.6,4.2-.6s1.5,0,2.2.1c.8,0,1.5.2,2.2.4.7.2,1.3.3,1.9.5.6.2,1.1.4,1.4.6.4.2.7.5,1,.8.2.3.3.7.3,1.1v1.6c0,.7-.3,1.1-.8,1.1-.4,0-.9-.2-1.3-.4-2-.9-4.2-1.3-6.4-1.3-1.9,0-3.4.3-4.4.9-1,.6-1.6,1.6-1.6,3s.3,1.7,1,2.4c.7.6,1.9,1.3,3.7,1.8l4.7,1.5c2.4.8,4.1,1.8,5.2,3.2,1,1.4,1.5,2.9,1.5,4.7s-.3,2.7-.9,3.9c-.6,1.1-1.4,2.1-2.4,2.9-1,.8-2.3,1.4-3.7,1.9-1.5.5-3.1.7-4.8.7Z"/>
      <path class="aws-s1" d="M90.4,73.8c-10.9,8.1-26.8,12.4-40.5,12.4S13.5,79.1.4,67.3c-1-.9,0-2.2,1.1-1.5,14.1,8.2,31.5,13.2,49.5,13.2s25.5-2.5,37.7-7.7c1.8-.8,3.4,1.2,1.6,2.5Z"/>
      <path class="aws-s1" d="M95,68.6c-1.4-1.8-9.2-.9-12.8-.4-1.1.1-1.2-.8-.3-1.5,6.2-4.4,16.5-3.1,17.7-1.7,1.2,1.5-.3,11.8-6.2,16.8-.9.8-1.8.4-1.4-.6,1.3-3.3,4.3-10.8,2.9-12.5h0Z"/>
    </g>
  </g>
</svg>